M48
; DRILL file KiCad 10.0.5 date 2026-09-10T21:09:55
; FORMAT={-:-/ absolute / metric / decimal}
; #@! TF.CreationDate,2026-09-10T21:09:55-07:00
; #@! TF.GenerationSoftware,Kicad,Pcbnew,10.0.5
; #@! TF.FileFunction,Plated,1,2,PTH
FMAT,2
METRIC
; #@! TA.AperFunction,Plated,PTH,ViaDrill
T1C0.400
; #@! TA.AperFunction,Plated,PTH,ComponentDrill
T2C0.750
; #@! TA.AperFunction,Plated,PTH,ComponentDrill
T3C0.800
; #@! TA.AperFunction,Plated,PTH,ComponentDrill
T4C1.000
%
G90
G05
T1
X45.68Y-83.0
X48.22Y-84.0
X57.0Y-39.0
X69.46Y-50.5
X79.0Y-47.0
X90.5Y-64.0
X91.0Y-78.8
X95.5Y-42.0
X95.5Y-64.0
X104.0Y-47.0
X109.5Y-64.0
X114.5Y-64.0
X117.0Y-47.0
X128.5Y-64.0
X130.0Y-47.0
X133.5Y-64.0
X134.5Y-48.75
X134.5Y-57.25
X139.0Y-46.0
X139.0Y-60.0
T2
X69.46Y-53.0
X70.73Y-54.27
X72.0Y-53.0
T3
X61.0Y-88.0
X64.0Y-53.0
X64.0Y-58.0
X69.0Y-59.0
X69.0Y-71.7
X76.0Y-46.5
X76.0Y-53.0
X76.24Y-88.0
X86.0Y-62.54
X86.0Y-75.24
X88.0Y-38.0
X91.24Y-46.5
X91.24Y-53.0
X93.0Y-38.0
X93.0Y-60.0
X93.0Y-65.0
X95.0Y-53.0
X99.0Y-68.0
X99.0Y-73.0
X110.24Y-53.0
X112.0Y-60.0
X112.0Y-65.0
X114.0Y-53.0
X129.24Y-53.0
X131.0Y-60.0
X131.0Y-65.0
T4
X43.14Y-65.22
X43.14Y-80.46
X44.0Y-38.0
X45.68Y-65.22
X45.68Y-80.46
X46.54Y-38.0
X48.22Y-65.22
X48.22Y-80.46
X49.08Y-38.0
X50.76Y-65.22
X50.76Y-80.46
X51.62Y-38.0
X53.3Y-65.22
X53.3Y-80.46
X54.16Y-38.0
X55.84Y-65.22
X55.84Y-80.46
X58.38Y-65.22
X58.38Y-80.46
X60.92Y-65.22
X60.92Y-80.46
X63.46Y-65.22
X63.46Y-67.76
X63.46Y-70.3
X63.46Y-72.84
X63.46Y-75.38
X63.46Y-77.92
X63.46Y-80.46
X81.0Y-88.0
X83.5Y-93.0
X86.0Y-88.0
M30
