#VRML V2.0 utf8
WorldInfo { title "FT37-43 bare core upright" info ["https://www.amidoncorp.com/ft-37-43/", "OD 9.525 ID 4.7498 thickness 3.175 mm; 1 mm standoff; no winding geometry", "KiCad VRML unit = 2.54 mm"] }
Shape { appearance Appearance { material Material { diffuseColor 0.12 0.12 0.13 specularColor 0.25 0.25 0.25 shininess 0.25 } }
geometry IndexedFaceSet { solid FALSE creaseAngle 0.4
coord Coordinate { point [
1.87500000 -0.62500000 2.26870079,
1.87098548 -0.62500000 2.39133165,
1.85895912 -0.62500000 2.51343740,
1.83897240 -0.62500000 2.63449514,
1.81111092 -0.62500000 2.75398650,
1.77549399 -0.62500000 2.87139978,
1.73227412 -0.62500000 2.98623222,
1.68163639 -0.62500000 3.09799208,
1.62379763 -0.62500000 3.20620079,
1.55900552 -0.62500000 3.31039497,
1.48753751 -0.62500000 3.41012847,
1.40969964 -0.62500000 3.50497419,
1.32582521 -0.62500000 3.59452600,
1.23627340 -0.62500000 3.67840043,
1.14142768 -0.62500000 3.75623830,
1.04169419 -0.62500000 3.82770631,
0.93750000 -0.62500000 3.89249842,
0.82929129 -0.62500000 3.95033718,
0.71753144 -0.62500000 4.00097491,
0.60269900 -0.62500000 4.04419478,
0.48528571 -0.62500000 4.07981171,
0.36579435 -0.62500000 4.10767319,
0.24473661 -0.62500000 4.12765990,
0.12263087 -0.62500000 4.13968627,
0.00000000 -0.62500000 4.14370079,
-0.12263087 -0.62500000 4.13968627,
-0.24473661 -0.62500000 4.12765990,
-0.36579435 -0.62500000 4.10767319,
-0.48528571 -0.62500000 4.07981171,
-0.60269900 -0.62500000 4.04419478,
-0.71753144 -0.62500000 4.00097491,
-0.82929129 -0.62500000 3.95033718,
-0.93750000 -0.62500000 3.89249842,
-1.04169419 -0.62500000 3.82770631,
-1.14142768 -0.62500000 3.75623830,
-1.23627340 -0.62500000 3.67840043,
-1.32582521 -0.62500000 3.59452600,
-1.40969964 -0.62500000 3.50497419,
-1.48753751 -0.62500000 3.41012847,
-1.55900552 -0.62500000 3.31039497,
-1.62379763 -0.62500000 3.20620079,
-1.68163639 -0.62500000 3.09799208,
-1.73227412 -0.62500000 2.98623222,
-1.77549399 -0.62500000 2.87139978,
-1.81111092 -0.62500000 2.75398650,
-1.83897240 -0.62500000 2.63449514,
-1.85895912 -0.62500000 2.51343740,
-1.87098548 -0.62500000 2.39133165,
-1.87500000 -0.62500000 2.26870079,
-1.87098548 -0.62500000 2.14606992,
-1.85895912 -0.62500000 2.02396418,
-1.83897240 -0.62500000 1.90290643,
-1.81111092 -0.62500000 1.78341508,
-1.77549399 -0.62500000 1.66600179,
-1.73227412 -0.62500000 1.55116935,
-1.68163639 -0.62500000 1.43940949,
-1.62379763 -0.62500000 1.33120079,
-1.55900552 -0.62500000 1.22700660,
-1.48753751 -0.62500000 1.12727311,
-1.40969964 -0.62500000 1.03242738,
-1.32582521 -0.62500000 0.94287557,
-1.23627340 -0.62500000 0.85900115,
-1.14142768 -0.62500000 0.78116327,
-1.04169419 -0.62500000 0.70969526,
-0.93750000 -0.62500000 0.64490316,
-0.82929129 -0.62500000 0.58706440,
-0.71753144 -0.62500000 0.53642666,
-0.60269900 -0.62500000 0.49320679,
-0.48528571 -0.62500000 0.45758986,
-0.36579435 -0.62500000 0.42972839,
-0.24473661 -0.62500000 0.40974167,
-0.12263087 -0.62500000 0.39771531,
-0.00000000 -0.62500000 0.39370079,
0.12263087 -0.62500000 0.39771531,
0.24473661 -0.62500000 0.40974167,
0.36579435 -0.62500000 0.42972839,
0.48528571 -0.62500000 0.45758986,
0.60269900 -0.62500000 0.49320679,
0.71753144 -0.62500000 0.53642666,
0.82929129 -0.62500000 0.58706440,
0.93750000 -0.62500000 0.64490316,
1.04169419 -0.62500000 0.70969526,
1.14142768 -0.62500000 0.78116327,
1.23627340 -0.62500000 0.85900115,
1.32582521 -0.62500000 0.94287557,
1.40969964 -0.62500000 1.03242738,
1.48753751 -0.62500000 1.12727311,
1.55900552 -0.62500000 1.22700660,
1.62379763 -0.62500000 1.33120079,
1.68163639 -0.62500000 1.43940949,
1.73227412 -0.62500000 1.55116935,
1.77549399 -0.62500000 1.66600179,
1.81111092 -0.62500000 1.78341508,
1.83897240 -0.62500000 1.90290643,
1.85895912 -0.62500000 2.02396418,
1.87098548 -0.62500000 2.14606992,
1.87500000 0.62500000 2.26870079,
1.87098548 0.62500000 2.39133165,
1.85895912 0.62500000 2.51343740,
1.83897240 0.62500000 2.63449514,
1.81111092 0.62500000 2.75398650,
1.77549399 0.62500000 2.87139978,
1.73227412 0.62500000 2.98623222,
1.68163639 0.62500000 3.09799208,
1.62379763 0.62500000 3.20620079,
1.55900552 0.62500000 3.31039497,
1.48753751 0.62500000 3.41012847,
1.40969964 0.62500000 3.50497419,
1.32582521 0.62500000 3.59452600,
1.23627340 0.62500000 3.67840043,
1.14142768 0.62500000 3.75623830,
1.04169419 0.62500000 3.82770631,
0.93750000 0.62500000 3.89249842,
0.82929129 0.62500000 3.95033718,
0.71753144 0.62500000 4.00097491,
0.60269900 0.62500000 4.04419478,
0.48528571 0.62500000 4.07981171,
0.36579435 0.62500000 4.10767319,
0.24473661 0.62500000 4.12765990,
0.12263087 0.62500000 4.13968627,
0.00000000 0.62500000 4.14370079,
-0.12263087 0.62500000 4.13968627,
-0.24473661 0.62500000 4.12765990,
-0.36579435 0.62500000 4.10767319,
-0.48528571 0.62500000 4.07981171,
-0.60269900 0.62500000 4.04419478,
-0.71753144 0.62500000 4.00097491,
-0.82929129 0.62500000 3.95033718,
-0.93750000 0.62500000 3.89249842,
-1.04169419 0.62500000 3.82770631,
-1.14142768 0.62500000 3.75623830,
-1.23627340 0.62500000 3.67840043,
-1.32582521 0.62500000 3.59452600,
-1.40969964 0.62500000 3.50497419,
-1.48753751 0.62500000 3.41012847,
-1.55900552 0.62500000 3.31039497,
-1.62379763 0.62500000 3.20620079,
-1.68163639 0.62500000 3.09799208,
-1.73227412 0.62500000 2.98623222,
-1.77549399 0.62500000 2.87139978,
-1.81111092 0.62500000 2.75398650,
-1.83897240 0.62500000 2.63449514,
-1.85895912 0.62500000 2.51343740,
-1.87098548 0.62500000 2.39133165,
-1.87500000 0.62500000 2.26870079,
-1.87098548 0.62500000 2.14606992,
-1.85895912 0.62500000 2.02396418,
-1.83897240 0.62500000 1.90290643,
-1.81111092 0.62500000 1.78341508,
-1.77549399 0.62500000 1.66600179,
-1.73227412 0.62500000 1.55116935,
-1.68163639 0.62500000 1.43940949,
-1.62379763 0.62500000 1.33120079,
-1.55900552 0.62500000 1.22700660,
-1.48753751 0.62500000 1.12727311,
-1.40969964 0.62500000 1.03242738,
-1.32582521 0.62500000 0.94287557,
-1.23627340 0.62500000 0.85900115,
-1.14142768 0.62500000 0.78116327,
-1.04169419 0.62500000 0.70969526,
-0.93750000 0.62500000 0.64490316,
-0.82929129 0.62500000 0.58706440,
-0.71753144 0.62500000 0.53642666,
-0.60269900 0.62500000 0.49320679,
-0.48528571 0.62500000 0.45758986,
-0.36579435 0.62500000 0.42972839,
-0.24473661 0.62500000 0.40974167,
-0.12263087 0.62500000 0.39771531,
-0.00000000 0.62500000 0.39370079,
0.12263087 0.62500000 0.39771531,
0.24473661 0.62500000 0.40974167,
0.36579435 0.62500000 0.42972839,
0.48528571 0.62500000 0.45758986,
0.60269900 0.62500000 0.49320679,
0.71753144 0.62500000 0.53642666,
0.82929129 0.62500000 0.58706440,
0.93750000 0.62500000 0.64490316,
1.04169419 0.62500000 0.70969526,
1.14142768 0.62500000 0.78116327,
1.23627340 0.62500000 0.85900115,
1.32582521 0.62500000 0.94287557,
1.40969964 0.62500000 1.03242738,
1.48753751 0.62500000 1.12727311,
1.55900552 0.62500000 1.22700660,
1.62379763 0.62500000 1.33120079,
1.68163639 0.62500000 1.43940949,
1.73227412 0.62500000 1.55116935,
1.77549399 0.62500000 1.66600179,
1.81111092 0.62500000 1.78341508,
1.83897240 0.62500000 1.90290643,
1.85895912 0.62500000 2.02396418,
1.87098548 0.62500000 2.14606992,
0.93500000 -0.62500000 2.26870079,
0.93299809 -0.62500000 2.32985271,
0.92700095 -0.62500000 2.39074278,
0.91703424 -0.62500000 2.45111024,
0.90314065 -0.62500000 2.51069659,
0.88537967 -0.62500000 2.56924669,
0.86382736 -0.62500000 2.62650980,
0.83857601 -0.62500000 2.68224071,
0.80973375 -0.62500000 2.73620079,
0.77742409 -0.62500000 2.78815896,
0.74178537 -0.62500000 2.83789272,
0.70297022 -0.62500000 2.88518912,
0.66114484 -0.62500000 2.92984563,
0.61648834 -0.62500000 2.97167101,
0.56919194 -0.62500000 3.01048616,
0.51945817 -0.62500000 3.04612487,
0.46750000 -0.62500000 3.07843454,
0.41353993 -0.62500000 3.10727680,
0.35780901 -0.62500000 3.13252815,
0.30054590 -0.62500000 3.15408046,
0.24199581 -0.62500000 3.17184143,
0.18240945 -0.62500000 3.18573502,
0.12204199 -0.62500000 3.19570173,
0.06115193 -0.62500000 3.20169888,
0.00000000 -0.62500000 3.20370079,
-0.06115193 -0.62500000 3.20169888,
-0.12204199 -0.62500000 3.19570173,
-0.18240945 -0.62500000 3.18573502,
-0.24199581 -0.62500000 3.17184143,
-0.30054590 -0.62500000 3.15408046,
-0.35780901 -0.62500000 3.13252815,
-0.41353993 -0.62500000 3.10727680,
-0.46750000 -0.62500000 3.07843454,
-0.51945817 -0.62500000 3.04612487,
-0.56919194 -0.62500000 3.01048616,
-0.61648834 -0.62500000 2.97167101,
-0.66114484 -0.62500000 2.92984563,
-0.70297022 -0.62500000 2.88518912,
-0.74178537 -0.62500000 2.83789272,
-0.77742409 -0.62500000 2.78815896,
-0.80973375 -0.62500000 2.73620079,
-0.83857601 -0.62500000 2.68224071,
-0.86382736 -0.62500000 2.62650980,
-0.88537967 -0.62500000 2.56924669,
-0.90314065 -0.62500000 2.51069659,
-0.91703424 -0.62500000 2.45111024,
-0.92700095 -0.62500000 2.39074278,
-0.93299809 -0.62500000 2.32985271,
-0.93500000 -0.62500000 2.26870079,
-0.93299809 -0.62500000 2.20754886,
-0.92700095 -0.62500000 2.14665880,
-0.91703424 -0.62500000 2.08629134,
-0.90314065 -0.62500000 2.02670498,
-0.88537967 -0.62500000 1.96815489,
-0.86382736 -0.62500000 1.91089178,
-0.83857601 -0.62500000 1.85516086,
-0.80973375 -0.62500000 1.80120079,
-0.77742409 -0.62500000 1.74924262,
-0.74178537 -0.62500000 1.69950885,
-0.70297022 -0.62500000 1.65221245,
-0.66114484 -0.62500000 1.60755595,
-0.61648834 -0.62500000 1.56573057,
-0.56919194 -0.62500000 1.52691541,
-0.51945817 -0.62500000 1.49127670,
-0.46750000 -0.62500000 1.45896703,
-0.41353993 -0.62500000 1.43012477,
-0.35780901 -0.62500000 1.40487342,
-0.30054590 -0.62500000 1.38332112,
-0.24199581 -0.62500000 1.36556014,
-0.18240945 -0.62500000 1.35166655,
-0.12204199 -0.62500000 1.34169984,
-0.06115193 -0.62500000 1.33570269,
-0.00000000 -0.62500000 1.33370079,
0.06115193 -0.62500000 1.33570269,
0.12204199 -0.62500000 1.34169984,
0.18240945 -0.62500000 1.35166655,
0.24199581 -0.62500000 1.36556014,
0.30054590 -0.62500000 1.38332112,
0.35780901 -0.62500000 1.40487342,
0.41353993 -0.62500000 1.43012477,
0.46750000 -0.62500000 1.45896703,
0.51945817 -0.62500000 1.49127670,
0.56919194 -0.62500000 1.52691541,
0.61648834 -0.62500000 1.56573057,
0.66114484 -0.62500000 1.60755595,
0.70297022 -0.62500000 1.65221245,
0.74178537 -0.62500000 1.69950885,
0.77742409 -0.62500000 1.74924262,
0.80973375 -0.62500000 1.80120079,
0.83857601 -0.62500000 1.85516086,
0.86382736 -0.62500000 1.91089178,
0.88537967 -0.62500000 1.96815489,
0.90314065 -0.62500000 2.02670498,
0.91703424 -0.62500000 2.08629134,
0.92700095 -0.62500000 2.14665880,
0.93299809 -0.62500000 2.20754886,
0.93500000 0.62500000 2.26870079,
0.93299809 0.62500000 2.32985271,
0.92700095 0.62500000 2.39074278,
0.91703424 0.62500000 2.45111024,
0.90314065 0.62500000 2.51069659,
0.88537967 0.62500000 2.56924669,
0.86382736 0.62500000 2.62650980,
0.83857601 0.62500000 2.68224071,
0.80973375 0.62500000 2.73620079,
0.77742409 0.62500000 2.78815896,
0.74178537 0.62500000 2.83789272,
0.70297022 0.62500000 2.88518912,
0.66114484 0.62500000 2.92984563,
0.61648834 0.62500000 2.97167101,
0.56919194 0.62500000 3.01048616,
0.51945817 0.62500000 3.04612487,
0.46750000 0.62500000 3.07843454,
0.41353993 0.62500000 3.10727680,
0.35780901 0.62500000 3.13252815,
0.30054590 0.62500000 3.15408046,
0.24199581 0.62500000 3.17184143,
0.18240945 0.62500000 3.18573502,
0.12204199 0.62500000 3.19570173,
0.06115193 0.62500000 3.20169888,
0.00000000 0.62500000 3.20370079,
-0.06115193 0.62500000 3.20169888,
-0.12204199 0.62500000 3.19570173,
-0.18240945 0.62500000 3.18573502,
-0.24199581 0.62500000 3.17184143,
-0.30054590 0.62500000 3.15408046,
-0.35780901 0.62500000 3.13252815,
-0.41353993 0.62500000 3.10727680,
-0.46750000 0.62500000 3.07843454,
-0.51945817 0.62500000 3.04612487,
-0.56919194 0.62500000 3.01048616,
-0.61648834 0.62500000 2.97167101,
-0.66114484 0.62500000 2.92984563,
-0.70297022 0.62500000 2.88518912,
-0.74178537 0.62500000 2.83789272,
-0.77742409 0.62500000 2.78815896,
-0.80973375 0.62500000 2.73620079,
-0.83857601 0.62500000 2.68224071,
-0.86382736 0.62500000 2.62650980,
-0.88537967 0.62500000 2.56924669,
-0.90314065 0.62500000 2.51069659,
-0.91703424 0.62500000 2.45111024,
-0.92700095 0.62500000 2.39074278,
-0.93299809 0.62500000 2.32985271,
-0.93500000 0.62500000 2.26870079,
-0.93299809 0.62500000 2.20754886,
-0.92700095 0.62500000 2.14665880,
-0.91703424 0.62500000 2.08629134,
-0.90314065 0.62500000 2.02670498,
-0.88537967 0.62500000 1.96815489,
-0.86382736 0.62500000 1.91089178,
-0.83857601 0.62500000 1.85516086,
-0.80973375 0.62500000 1.80120079,
-0.77742409 0.62500000 1.74924262,
-0.74178537 0.62500000 1.69950885,
-0.70297022 0.62500000 1.65221245,
-0.66114484 0.62500000 1.60755595,
-0.61648834 0.62500000 1.56573057,
-0.56919194 0.62500000 1.52691541,
-0.51945817 0.62500000 1.49127670,
-0.46750000 0.62500000 1.45896703,
-0.41353993 0.62500000 1.43012477,
-0.35780901 0.62500000 1.40487342,
-0.30054590 0.62500000 1.38332112,
-0.24199581 0.62500000 1.36556014,
-0.18240945 0.62500000 1.35166655,
-0.12204199 0.62500000 1.34169984,
-0.06115193 0.62500000 1.33570269,
-0.00000000 0.62500000 1.33370079,
0.06115193 0.62500000 1.33570269,
0.12204199 0.62500000 1.34169984,
0.18240945 0.62500000 1.35166655,
0.24199581 0.62500000 1.36556014,
0.30054590 0.62500000 1.38332112,
0.35780901 0.62500000 1.40487342,
0.41353993 0.62500000 1.43012477,
0.46750000 0.62500000 1.45896703,
0.51945817 0.62500000 1.49127670,
0.56919194 0.62500000 1.52691541,
0.61648834 0.62500000 1.56573057,
0.66114484 0.62500000 1.60755595,
0.70297022 0.62500000 1.65221245,
0.74178537 0.62500000 1.69950885,
0.77742409 0.62500000 1.74924262,
0.80973375 0.62500000 1.80120079,
0.83857601 0.62500000 1.85516086,
0.86382736 0.62500000 1.91089178,
0.88537967 0.62500000 1.96815489,
0.90314065 0.62500000 2.02670498,
0.91703424 0.62500000 2.08629134,
0.92700095 0.62500000 2.14665880,
0.93299809 0.62500000 2.20754886
] }
coordIndex [
0, 1, 97, 96, -1,
192, 288, 289, 193, -1,
0, 192, 193, 1, -1,
96, 97, 289, 288, -1,
1, 2, 98, 97, -1,
193, 289, 290, 194, -1,
1, 193, 194, 2, -1,
97, 98, 290, 289, -1,
2, 3, 99, 98, -1,
194, 290, 291, 195, -1,
2, 194, 195, 3, -1,
98, 99, 291, 290, -1,
3, 4, 100, 99, -1,
195, 291, 292, 196, -1,
3, 195, 196, 4, -1,
99, 100, 292, 291, -1,
4, 5, 101, 100, -1,
196, 292, 293, 197, -1,
4, 196, 197, 5, -1,
100, 101, 293, 292, -1,
5, 6, 102, 101, -1,
197, 293, 294, 198, -1,
5, 197, 198, 6, -1,
101, 102, 294, 293, -1,
6, 7, 103, 102, -1,
198, 294, 295, 199, -1,
6, 198, 199, 7, -1,
102, 103, 295, 294, -1,
7, 8, 104, 103, -1,
199, 295, 296, 200, -1,
7, 199, 200, 8, -1,
103, 104, 296, 295, -1,
8, 9, 105, 104, -1,
200, 296, 297, 201, -1,
8, 200, 201, 9, -1,
104, 105, 297, 296, -1,
9, 10, 106, 105, -1,
201, 297, 298, 202, -1,
9, 201, 202, 10, -1,
105, 106, 298, 297, -1,
10, 11, 107, 106, -1,
202, 298, 299, 203, -1,
10, 202, 203, 11, -1,
106, 107, 299, 298, -1,
11, 12, 108, 107, -1,
203, 299, 300, 204, -1,
11, 203, 204, 12, -1,
107, 108, 300, 299, -1,
12, 13, 109, 108, -1,
204, 300, 301, 205, -1,
12, 204, 205, 13, -1,
108, 109, 301, 300, -1,
13, 14, 110, 109, -1,
205, 301, 302, 206, -1,
13, 205, 206, 14, -1,
109, 110, 302, 301, -1,
14, 15, 111, 110, -1,
206, 302, 303, 207, -1,
14, 206, 207, 15, -1,
110, 111, 303, 302, -1,
15, 16, 112, 111, -1,
207, 303, 304, 208, -1,
15, 207, 208, 16, -1,
111, 112, 304, 303, -1,
16, 17, 113, 112, -1,
208, 304, 305, 209, -1,
16, 208, 209, 17, -1,
112, 113, 305, 304, -1,
17, 18, 114, 113, -1,
209, 305, 306, 210, -1,
17, 209, 210, 18, -1,
113, 114, 306, 305, -1,
18, 19, 115, 114, -1,
210, 306, 307, 211, -1,
18, 210, 211, 19, -1,
114, 115, 307, 306, -1,
19, 20, 116, 115, -1,
211, 307, 308, 212, -1,
19, 211, 212, 20, -1,
115, 116, 308, 307, -1,
20, 21, 117, 116, -1,
212, 308, 309, 213, -1,
20, 212, 213, 21, -1,
116, 117, 309, 308, -1,
21, 22, 118, 117, -1,
213, 309, 310, 214, -1,
21, 213, 214, 22, -1,
117, 118, 310, 309, -1,
22, 23, 119, 118, -1,
214, 310, 311, 215, -1,
22, 214, 215, 23, -1,
118, 119, 311, 310, -1,
23, 24, 120, 119, -1,
215, 311, 312, 216, -1,
23, 215, 216, 24, -1,
119, 120, 312, 311, -1,
24, 25, 121, 120, -1,
216, 312, 313, 217, -1,
24, 216, 217, 25, -1,
120, 121, 313, 312, -1,
25, 26, 122, 121, -1,
217, 313, 314, 218, -1,
25, 217, 218, 26, -1,
121, 122, 314, 313, -1,
26, 27, 123, 122, -1,
218, 314, 315, 219, -1,
26, 218, 219, 27, -1,
122, 123, 315, 314, -1,
27, 28, 124, 123, -1,
219, 315, 316, 220, -1,
27, 219, 220, 28, -1,
123, 124, 316, 315, -1,
28, 29, 125, 124, -1,
220, 316, 317, 221, -1,
28, 220, 221, 29, -1,
124, 125, 317, 316, -1,
29, 30, 126, 125, -1,
221, 317, 318, 222, -1,
29, 221, 222, 30, -1,
125, 126, 318, 317, -1,
30, 31, 127, 126, -1,
222, 318, 319, 223, -1,
30, 222, 223, 31, -1,
126, 127, 319, 318, -1,
31, 32, 128, 127, -1,
223, 319, 320, 224, -1,
31, 223, 224, 32, -1,
127, 128, 320, 319, -1,
32, 33, 129, 128, -1,
224, 320, 321, 225, -1,
32, 224, 225, 33, -1,
128, 129, 321, 320, -1,
33, 34, 130, 129, -1,
225, 321, 322, 226, -1,
33, 225, 226, 34, -1,
129, 130, 322, 321, -1,
34, 35, 131, 130, -1,
226, 322, 323, 227, -1,
34, 226, 227, 35, -1,
130, 131, 323, 322, -1,
35, 36, 132, 131, -1,
227, 323, 324, 228, -1,
35, 227, 228, 36, -1,
131, 132, 324, 323, -1,
36, 37, 133, 132, -1,
228, 324, 325, 229, -1,
36, 228, 229, 37, -1,
132, 133, 325, 324, -1,
37, 38, 134, 133, -1,
229, 325, 326, 230, -1,
37, 229, 230, 38, -1,
133, 134, 326, 325, -1,
38, 39, 135, 134, -1,
230, 326, 327, 231, -1,
38, 230, 231, 39, -1,
134, 135, 327, 326, -1,
39, 40, 136, 135, -1,
231, 327, 328, 232, -1,
39, 231, 232, 40, -1,
135, 136, 328, 327, -1,
40, 41, 137, 136, -1,
232, 328, 329, 233, -1,
40, 232, 233, 41, -1,
136, 137, 329, 328, -1,
41, 42, 138, 137, -1,
233, 329, 330, 234, -1,
41, 233, 234, 42, -1,
137, 138, 330, 329, -1,
42, 43, 139, 138, -1,
234, 330, 331, 235, -1,
42, 234, 235, 43, -1,
138, 139, 331, 330, -1,
43, 44, 140, 139, -1,
235, 331, 332, 236, -1,
43, 235, 236, 44, -1,
139, 140, 332, 331, -1,
44, 45, 141, 140, -1,
236, 332, 333, 237, -1,
44, 236, 237, 45, -1,
140, 141, 333, 332, -1,
45, 46, 142, 141, -1,
237, 333, 334, 238, -1,
45, 237, 238, 46, -1,
141, 142, 334, 333, -1,
46, 47, 143, 142, -1,
238, 334, 335, 239, -1,
46, 238, 239, 47, -1,
142, 143, 335, 334, -1,
47, 48, 144, 143, -1,
239, 335, 336, 240, -1,
47, 239, 240, 48, -1,
143, 144, 336, 335, -1,
48, 49, 145, 144, -1,
240, 336, 337, 241, -1,
48, 240, 241, 49, -1,
144, 145, 337, 336, -1,
49, 50, 146, 145, -1,
241, 337, 338, 242, -1,
49, 241, 242, 50, -1,
145, 146, 338, 337, -1,
50, 51, 147, 146, -1,
242, 338, 339, 243, -1,
50, 242, 243, 51, -1,
146, 147, 339, 338, -1,
51, 52, 148, 147, -1,
243, 339, 340, 244, -1,
51, 243, 244, 52, -1,
147, 148, 340, 339, -1,
52, 53, 149, 148, -1,
244, 340, 341, 245, -1,
52, 244, 245, 53, -1,
148, 149, 341, 340, -1,
53, 54, 150, 149, -1,
245, 341, 342, 246, -1,
53, 245, 246, 54, -1,
149, 150, 342, 341, -1,
54, 55, 151, 150, -1,
246, 342, 343, 247, -1,
54, 246, 247, 55, -1,
150, 151, 343, 342, -1,
55, 56, 152, 151, -1,
247, 343, 344, 248, -1,
55, 247, 248, 56, -1,
151, 152, 344, 343, -1,
56, 57, 153, 152, -1,
248, 344, 345, 249, -1,
56, 248, 249, 57, -1,
152, 153, 345, 344, -1,
57, 58, 154, 153, -1,
249, 345, 346, 250, -1,
57, 249, 250, 58, -1,
153, 154, 346, 345, -1,
58, 59, 155, 154, -1,
250, 346, 347, 251, -1,
58, 250, 251, 59, -1,
154, 155, 347, 346, -1,
59, 60, 156, 155, -1,
251, 347, 348, 252, -1,
59, 251, 252, 60, -1,
155, 156, 348, 347, -1,
60, 61, 157, 156, -1,
252, 348, 349, 253, -1,
60, 252, 253, 61, -1,
156, 157, 349, 348, -1,
61, 62, 158, 157, -1,
253, 349, 350, 254, -1,
61, 253, 254, 62, -1,
157, 158, 350, 349, -1,
62, 63, 159, 158, -1,
254, 350, 351, 255, -1,
62, 254, 255, 63, -1,
158, 159, 351, 350, -1,
63, 64, 160, 159, -1,
255, 351, 352, 256, -1,
63, 255, 256, 64, -1,
159, 160, 352, 351, -1,
64, 65, 161, 160, -1,
256, 352, 353, 257, -1,
64, 256, 257, 65, -1,
160, 161, 353, 352, -1,
65, 66, 162, 161, -1,
257, 353, 354, 258, -1,
65, 257, 258, 66, -1,
161, 162, 354, 353, -1,
66, 67, 163, 162, -1,
258, 354, 355, 259, -1,
66, 258, 259, 67, -1,
162, 163, 355, 354, -1,
67, 68, 164, 163, -1,
259, 355, 356, 260, -1,
67, 259, 260, 68, -1,
163, 164, 356, 355, -1,
68, 69, 165, 164, -1,
260, 356, 357, 261, -1,
68, 260, 261, 69, -1,
164, 165, 357, 356, -1,
69, 70, 166, 165, -1,
261, 357, 358, 262, -1,
69, 261, 262, 70, -1,
165, 166, 358, 357, -1,
70, 71, 167, 166, -1,
262, 358, 359, 263, -1,
70, 262, 263, 71, -1,
166, 167, 359, 358, -1,
71, 72, 168, 167, -1,
263, 359, 360, 264, -1,
71, 263, 264, 72, -1,
167, 168, 360, 359, -1,
72, 73, 169, 168, -1,
264, 360, 361, 265, -1,
72, 264, 265, 73, -1,
168, 169, 361, 360, -1,
73, 74, 170, 169, -1,
265, 361, 362, 266, -1,
73, 265, 266, 74, -1,
169, 170, 362, 361, -1,
74, 75, 171, 170, -1,
266, 362, 363, 267, -1,
74, 266, 267, 75, -1,
170, 171, 363, 362, -1,
75, 76, 172, 171, -1,
267, 363, 364, 268, -1,
75, 267, 268, 76, -1,
171, 172, 364, 363, -1,
76, 77, 173, 172, -1,
268, 364, 365, 269, -1,
76, 268, 269, 77, -1,
172, 173, 365, 364, -1,
77, 78, 174, 173, -1,
269, 365, 366, 270, -1,
77, 269, 270, 78, -1,
173, 174, 366, 365, -1,
78, 79, 175, 174, -1,
270, 366, 367, 271, -1,
78, 270, 271, 79, -1,
174, 175, 367, 366, -1,
79, 80, 176, 175, -1,
271, 367, 368, 272, -1,
79, 271, 272, 80, -1,
175, 176, 368, 367, -1,
80, 81, 177, 176, -1,
272, 368, 369, 273, -1,
80, 272, 273, 81, -1,
176, 177, 369, 368, -1,
81, 82, 178, 177, -1,
273, 369, 370, 274, -1,
81, 273, 274, 82, -1,
177, 178, 370, 369, -1,
82, 83, 179, 178, -1,
274, 370, 371, 275, -1,
82, 274, 275, 83, -1,
178, 179, 371, 370, -1,
83, 84, 180, 179, -1,
275, 371, 372, 276, -1,
83, 275, 276, 84, -1,
179, 180, 372, 371, -1,
84, 85, 181, 180, -1,
276, 372, 373, 277, -1,
84, 276, 277, 85, -1,
180, 181, 373, 372, -1,
85, 86, 182, 181, -1,
277, 373, 374, 278, -1,
85, 277, 278, 86, -1,
181, 182, 374, 373, -1,
86, 87, 183, 182, -1,
278, 374, 375, 279, -1,
86, 278, 279, 87, -1,
182, 183, 375, 374, -1,
87, 88, 184, 183, -1,
279, 375, 376, 280, -1,
87, 279, 280, 88, -1,
183, 184, 376, 375, -1,
88, 89, 185, 184, -1,
280, 376, 377, 281, -1,
88, 280, 281, 89, -1,
184, 185, 377, 376, -1,
89, 90, 186, 185, -1,
281, 377, 378, 282, -1,
89, 281, 282, 90, -1,
185, 186, 378, 377, -1,
90, 91, 187, 186, -1,
282, 378, 379, 283, -1,
90, 282, 283, 91, -1,
186, 187, 379, 378, -1,
91, 92, 188, 187, -1,
283, 379, 380, 284, -1,
91, 283, 284, 92, -1,
187, 188, 380, 379, -1,
92, 93, 189, 188, -1,
284, 380, 381, 285, -1,
92, 284, 285, 93, -1,
188, 189, 381, 380, -1,
93, 94, 190, 189, -1,
285, 381, 382, 286, -1,
93, 285, 286, 94, -1,
189, 190, 382, 381, -1,
94, 95, 191, 190, -1,
286, 382, 383, 287, -1,
94, 286, 287, 95, -1,
190, 191, 383, 382, -1,
95, 0, 96, 191, -1,
287, 383, 288, 192, -1,
95, 287, 192, 0, -1,
191, 96, 288, 383, -1
] } }
