#VRML V2.0 utf8
WorldInfo { title "RP2040-Zero headers" info ["Illustrative 4mm headers; verify underside clearance."] }
Shape { appearance Appearance { material Material { diffuseColor 0.08 0.08 0.09 specularColor 0.2 0.2 0.2 shininess 0.2 } } geometry IndexedFaceSet { solid FALSE creaseAngle 0.4
coord Coordinate { point [
0.50787402 0.50000000 0.00000000,
1.49212598 0.50000000 0.00000000,
1.49212598 9.50000000 0.00000000,
0.50787402 9.50000000 0.00000000,
0.50787402 0.50000000 1.57480315,
1.49212598 0.50000000 1.57480315,
1.49212598 9.50000000 1.57480315,
0.50787402 9.50000000 1.57480315
] }
coordIndex [
3 2 1 0 -1,
4 5 6 7 -1,
0 1 5 4 -1,
1 2 6 5 -1,
2 3 7 6 -1,
3 0 4 7 -1
] } }
Shape { appearance Appearance { material Material { diffuseColor 0.08 0.08 0.09 specularColor 0.2 0.2 0.2 shininess 0.2 } } geometry IndexedFaceSet { solid FALSE creaseAngle 0.4
coord Coordinate { point [
6.50787402 0.50000000 0.00000000,
7.49212598 0.50000000 0.00000000,
7.49212598 9.50000000 0.00000000,
6.50787402 9.50000000 0.00000000,
6.50787402 0.50000000 1.57480315,
7.49212598 0.50000000 1.57480315,
7.49212598 9.50000000 1.57480315,
6.50787402 9.50000000 1.57480315
] }
coordIndex [
3 2 1 0 -1,
4 5 6 7 -1,
0 1 5 4 -1,
1 2 6 5 -1,
2 3 7 6 -1,
3 0 4 7 -1
] } }
Shape { appearance Appearance { material Material { diffuseColor 0.08 0.08 0.09 specularColor 0.2 0.2 0.2 shininess 0.2 } } geometry IndexedFaceSet { solid FALSE creaseAngle 0.4
coord Coordinate { point [
1.50000000 0.50787402 0.00000000,
6.50000000 0.50787402 0.00000000,
6.50000000 1.49212598 0.00000000,
1.50000000 1.49212598 0.00000000,
1.50000000 0.50787402 1.57480315,
6.50000000 0.50787402 1.57480315,
6.50000000 1.49212598 1.57480315,
1.50000000 1.49212598 1.57480315
] }
coordIndex [
3 2 1 0 -1,
4 5 6 7 -1,
0 1 5 4 -1,
1 2 6 5 -1,
2 3 7 6 -1,
3 0 4 7 -1
] } }
Shape { appearance Appearance { material Material { diffuseColor 0.72 0.65 0.37 specularColor 0.2 0.2 0.2 shininess 0.2 } } geometry IndexedFaceSet { solid FALSE creaseAngle 0.4
coord Coordinate { point [
6.87401575 8.87401575 -1.18110236,
7.12598425 8.87401575 -1.18110236,
7.12598425 9.12598425 -1.18110236,
6.87401575 9.12598425 -1.18110236,
6.87401575 8.87401575 2.36220472,
7.12598425 8.87401575 2.36220472,
7.12598425 9.12598425 2.36220472,
6.87401575 9.12598425 2.36220472
] }
coordIndex [
3 2 1 0 -1,
4 5 6 7 -1,
0 1 5 4 -1,
1 2 6 5 -1,
2 3 7 6 -1,
3 0 4 7 -1
] } }
Shape { appearance Appearance { material Material { diffuseColor 0.72 0.65 0.37 specularColor 0.2 0.2 0.2 shininess 0.2 } } geometry IndexedFaceSet { solid FALSE creaseAngle 0.4
coord Coordinate { point [
6.87401575 7.87401575 -1.18110236,
7.12598425 7.87401575 -1.18110236,
7.12598425 8.12598425 -1.18110236,
6.87401575 8.12598425 -1.18110236,
6.87401575 7.87401575 2.36220472,
7.12598425 7.87401575 2.36220472,
7.12598425 8.12598425 2.36220472,
6.87401575 8.12598425 2.36220472
] }
coordIndex [
3 2 1 0 -1,
4 5 6 7 -1,
0 1 5 4 -1,
1 2 6 5 -1,
2 3 7 6 -1,
3 0 4 7 -1
] } }
Shape { appearance Appearance { material Material { diffuseColor 0.72 0.65 0.37 specularColor 0.2 0.2 0.2 shininess 0.2 } } geometry IndexedFaceSet { solid FALSE creaseAngle 0.4
coord Coordinate { point [
6.87401575 6.87401575 -1.18110236,
7.12598425 6.87401575 -1.18110236,
7.12598425 7.12598425 -1.18110236,
6.87401575 7.12598425 -1.18110236,
6.87401575 6.87401575 2.36220472,
7.12598425 6.87401575 2.36220472,
7.12598425 7.12598425 2.36220472,
6.87401575 7.12598425 2.36220472
] }
coordIndex [
3 2 1 0 -1,
4 5 6 7 -1,
0 1 5 4 -1,
1 2 6 5 -1,
2 3 7 6 -1,
3 0 4 7 -1
] } }
Shape { appearance Appearance { material Material { diffuseColor 0.72 0.65 0.37 specularColor 0.2 0.2 0.2 shininess 0.2 } } geometry IndexedFaceSet { solid FALSE creaseAngle 0.4
coord Coordinate { point [
6.87401575 5.87401575 -1.18110236,
7.12598425 5.87401575 -1.18110236,
7.12598425 6.12598425 -1.18110236,
6.87401575 6.12598425 -1.18110236,
6.87401575 5.87401575 2.36220472,
7.12598425 5.87401575 2.36220472,
7.12598425 6.12598425 2.36220472,
6.87401575 6.12598425 2.36220472
] }
coordIndex [
3 2 1 0 -1,
4 5 6 7 -1,
0 1 5 4 -1,
1 2 6 5 -1,
2 3 7 6 -1,
3 0 4 7 -1
] } }
Shape { appearance Appearance { material Material { diffuseColor 0.72 0.65 0.37 specularColor 0.2 0.2 0.2 shininess 0.2 } } geometry IndexedFaceSet { solid FALSE creaseAngle 0.4
coord Coordinate { point [
6.87401575 4.87401575 -1.18110236,
7.12598425 4.87401575 -1.18110236,
7.12598425 5.12598425 -1.18110236,
6.87401575 5.12598425 -1.18110236,
6.87401575 4.87401575 2.36220472,
7.12598425 4.87401575 2.36220472,
7.12598425 5.12598425 2.36220472,
6.87401575 5.12598425 2.36220472
] }
coordIndex [
3 2 1 0 -1,
4 5 6 7 -1,
0 1 5 4 -1,
1 2 6 5 -1,
2 3 7 6 -1,
3 0 4 7 -1
] } }
Shape { appearance Appearance { material Material { diffuseColor 0.72 0.65 0.37 specularColor 0.2 0.2 0.2 shininess 0.2 } } geometry IndexedFaceSet { solid FALSE creaseAngle 0.4
coord Coordinate { point [
6.87401575 3.87401575 -1.18110236,
7.12598425 3.87401575 -1.18110236,
7.12598425 4.12598425 -1.18110236,
6.87401575 4.12598425 -1.18110236,
6.87401575 3.87401575 2.36220472,
7.12598425 3.87401575 2.36220472,
7.12598425 4.12598425 2.36220472,
6.87401575 4.12598425 2.36220472
] }
coordIndex [
3 2 1 0 -1,
4 5 6 7 -1,
0 1 5 4 -1,
1 2 6 5 -1,
2 3 7 6 -1,
3 0 4 7 -1
] } }
Shape { appearance Appearance { material Material { diffuseColor 0.72 0.65 0.37 specularColor 0.2 0.2 0.2 shininess 0.2 } } geometry IndexedFaceSet { solid FALSE creaseAngle 0.4
coord Coordinate { point [
6.87401575 2.87401575 -1.18110236,
7.12598425 2.87401575 -1.18110236,
7.12598425 3.12598425 -1.18110236,
6.87401575 3.12598425 -1.18110236,
6.87401575 2.87401575 2.36220472,
7.12598425 2.87401575 2.36220472,
7.12598425 3.12598425 2.36220472,
6.87401575 3.12598425 2.36220472
] }
coordIndex [
3 2 1 0 -1,
4 5 6 7 -1,
0 1 5 4 -1,
1 2 6 5 -1,
2 3 7 6 -1,
3 0 4 7 -1
] } }
Shape { appearance Appearance { material Material { diffuseColor 0.72 0.65 0.37 specularColor 0.2 0.2 0.2 shininess 0.2 } } geometry IndexedFaceSet { solid FALSE creaseAngle 0.4
coord Coordinate { point [
6.87401575 1.87401575 -1.18110236,
7.12598425 1.87401575 -1.18110236,
7.12598425 2.12598425 -1.18110236,
6.87401575 2.12598425 -1.18110236,
6.87401575 1.87401575 2.36220472,
7.12598425 1.87401575 2.36220472,
7.12598425 2.12598425 2.36220472,
6.87401575 2.12598425 2.36220472
] }
coordIndex [
3 2 1 0 -1,
4 5 6 7 -1,
0 1 5 4 -1,
1 2 6 5 -1,
2 3 7 6 -1,
3 0 4 7 -1
] } }
Shape { appearance Appearance { material Material { diffuseColor 0.72 0.65 0.37 specularColor 0.2 0.2 0.2 shininess 0.2 } } geometry IndexedFaceSet { solid FALSE creaseAngle 0.4
coord Coordinate { point [
6.87401575 0.87401575 -1.18110236,
7.12598425 0.87401575 -1.18110236,
7.12598425 1.12598425 -1.18110236,
6.87401575 1.12598425 -1.18110236,
6.87401575 0.87401575 2.36220472,
7.12598425 0.87401575 2.36220472,
7.12598425 1.12598425 2.36220472,
6.87401575 1.12598425 2.36220472
] }
coordIndex [
3 2 1 0 -1,
4 5 6 7 -1,
0 1 5 4 -1,
1 2 6 5 -1,
2 3 7 6 -1,
3 0 4 7 -1
] } }
Shape { appearance Appearance { material Material { diffuseColor 0.72 0.65 0.37 specularColor 0.2 0.2 0.2 shininess 0.2 } } geometry IndexedFaceSet { solid FALSE creaseAngle 0.4
coord Coordinate { point [
5.87401575 0.87401575 -1.18110236,
6.12598425 0.87401575 -1.18110236,
6.12598425 1.12598425 -1.18110236,
5.87401575 1.12598425 -1.18110236,
5.87401575 0.87401575 2.36220472,
6.12598425 0.87401575 2.36220472,
6.12598425 1.12598425 2.36220472,
5.87401575 1.12598425 2.36220472
] }
coordIndex [
3 2 1 0 -1,
4 5 6 7 -1,
0 1 5 4 -1,
1 2 6 5 -1,
2 3 7 6 -1,
3 0 4 7 -1
] } }
Shape { appearance Appearance { material Material { diffuseColor 0.72 0.65 0.37 specularColor 0.2 0.2 0.2 shininess 0.2 } } geometry IndexedFaceSet { solid FALSE creaseAngle 0.4
coord Coordinate { point [
4.87401575 0.87401575 -1.18110236,
5.12598425 0.87401575 -1.18110236,
5.12598425 1.12598425 -1.18110236,
4.87401575 1.12598425 -1.18110236,
4.87401575 0.87401575 2.36220472,
5.12598425 0.87401575 2.36220472,
5.12598425 1.12598425 2.36220472,
4.87401575 1.12598425 2.36220472
] }
coordIndex [
3 2 1 0 -1,
4 5 6 7 -1,
0 1 5 4 -1,
1 2 6 5 -1,
2 3 7 6 -1,
3 0 4 7 -1
] } }
Shape { appearance Appearance { material Material { diffuseColor 0.72 0.65 0.37 specularColor 0.2 0.2 0.2 shininess 0.2 } } geometry IndexedFaceSet { solid FALSE creaseAngle 0.4
coord Coordinate { point [
3.87401575 0.87401575 -1.18110236,
4.12598425 0.87401575 -1.18110236,
4.12598425 1.12598425 -1.18110236,
3.87401575 1.12598425 -1.18110236,
3.87401575 0.87401575 2.36220472,
4.12598425 0.87401575 2.36220472,
4.12598425 1.12598425 2.36220472,
3.87401575 1.12598425 2.36220472
] }
coordIndex [
3 2 1 0 -1,
4 5 6 7 -1,
0 1 5 4 -1,
1 2 6 5 -1,
2 3 7 6 -1,
3 0 4 7 -1
] } }
Shape { appearance Appearance { material Material { diffuseColor 0.72 0.65 0.37 specularColor 0.2 0.2 0.2 shininess 0.2 } } geometry IndexedFaceSet { solid FALSE creaseAngle 0.4
coord Coordinate { point [
2.87401575 0.87401575 -1.18110236,
3.12598425 0.87401575 -1.18110236,
3.12598425 1.12598425 -1.18110236,
2.87401575 1.12598425 -1.18110236,
2.87401575 0.87401575 2.36220472,
3.12598425 0.87401575 2.36220472,
3.12598425 1.12598425 2.36220472,
2.87401575 1.12598425 2.36220472
] }
coordIndex [
3 2 1 0 -1,
4 5 6 7 -1,
0 1 5 4 -1,
1 2 6 5 -1,
2 3 7 6 -1,
3 0 4 7 -1
] } }
Shape { appearance Appearance { material Material { diffuseColor 0.72 0.65 0.37 specularColor 0.2 0.2 0.2 shininess 0.2 } } geometry IndexedFaceSet { solid FALSE creaseAngle 0.4
coord Coordinate { point [
1.87401575 0.87401575 -1.18110236,
2.12598425 0.87401575 -1.18110236,
2.12598425 1.12598425 -1.18110236,
1.87401575 1.12598425 -1.18110236,
1.87401575 0.87401575 2.36220472,
2.12598425 0.87401575 2.36220472,
2.12598425 1.12598425 2.36220472,
1.87401575 1.12598425 2.36220472
] }
coordIndex [
3 2 1 0 -1,
4 5 6 7 -1,
0 1 5 4 -1,
1 2 6 5 -1,
2 3 7 6 -1,
3 0 4 7 -1
] } }
Shape { appearance Appearance { material Material { diffuseColor 0.72 0.65 0.37 specularColor 0.2 0.2 0.2 shininess 0.2 } } geometry IndexedFaceSet { solid FALSE creaseAngle 0.4
coord Coordinate { point [
0.87401575 0.87401575 -1.18110236,
1.12598425 0.87401575 -1.18110236,
1.12598425 1.12598425 -1.18110236,
0.87401575 1.12598425 -1.18110236,
0.87401575 0.87401575 2.36220472,
1.12598425 0.87401575 2.36220472,
1.12598425 1.12598425 2.36220472,
0.87401575 1.12598425 2.36220472
] }
coordIndex [
3 2 1 0 -1,
4 5 6 7 -1,
0 1 5 4 -1,
1 2 6 5 -1,
2 3 7 6 -1,
3 0 4 7 -1
] } }
Shape { appearance Appearance { material Material { diffuseColor 0.72 0.65 0.37 specularColor 0.2 0.2 0.2 shininess 0.2 } } geometry IndexedFaceSet { solid FALSE creaseAngle 0.4
coord Coordinate { point [
0.87401575 1.87401575 -1.18110236,
1.12598425 1.87401575 -1.18110236,
1.12598425 2.12598425 -1.18110236,
0.87401575 2.12598425 -1.18110236,
0.87401575 1.87401575 2.36220472,
1.12598425 1.87401575 2.36220472,
1.12598425 2.12598425 2.36220472,
0.87401575 2.12598425 2.36220472
] }
coordIndex [
3 2 1 0 -1,
4 5 6 7 -1,
0 1 5 4 -1,
1 2 6 5 -1,
2 3 7 6 -1,
3 0 4 7 -1
] } }
Shape { appearance Appearance { material Material { diffuseColor 0.72 0.65 0.37 specularColor 0.2 0.2 0.2 shininess 0.2 } } geometry IndexedFaceSet { solid FALSE creaseAngle 0.4
coord Coordinate { point [
0.87401575 2.87401575 -1.18110236,
1.12598425 2.87401575 -1.18110236,
1.12598425 3.12598425 -1.18110236,
0.87401575 3.12598425 -1.18110236,
0.87401575 2.87401575 2.36220472,
1.12598425 2.87401575 2.36220472,
1.12598425 3.12598425 2.36220472,
0.87401575 3.12598425 2.36220472
] }
coordIndex [
3 2 1 0 -1,
4 5 6 7 -1,
0 1 5 4 -1,
1 2 6 5 -1,
2 3 7 6 -1,
3 0 4 7 -1
] } }
Shape { appearance Appearance { material Material { diffuseColor 0.72 0.65 0.37 specularColor 0.2 0.2 0.2 shininess 0.2 } } geometry IndexedFaceSet { solid FALSE creaseAngle 0.4
coord Coordinate { point [
0.87401575 3.87401575 -1.18110236,
1.12598425 3.87401575 -1.18110236,
1.12598425 4.12598425 -1.18110236,
0.87401575 4.12598425 -1.18110236,
0.87401575 3.87401575 2.36220472,
1.12598425 3.87401575 2.36220472,
1.12598425 4.12598425 2.36220472,
0.87401575 4.12598425 2.36220472
] }
coordIndex [
3 2 1 0 -1,
4 5 6 7 -1,
0 1 5 4 -1,
1 2 6 5 -1,
2 3 7 6 -1,
3 0 4 7 -1
] } }
Shape { appearance Appearance { material Material { diffuseColor 0.72 0.65 0.37 specularColor 0.2 0.2 0.2 shininess 0.2 } } geometry IndexedFaceSet { solid FALSE creaseAngle 0.4
coord Coordinate { point [
0.87401575 4.87401575 -1.18110236,
1.12598425 4.87401575 -1.18110236,
1.12598425 5.12598425 -1.18110236,
0.87401575 5.12598425 -1.18110236,
0.87401575 4.87401575 2.36220472,
1.12598425 4.87401575 2.36220472,
1.12598425 5.12598425 2.36220472,
0.87401575 5.12598425 2.36220472
] }
coordIndex [
3 2 1 0 -1,
4 5 6 7 -1,
0 1 5 4 -1,
1 2 6 5 -1,
2 3 7 6 -1,
3 0 4 7 -1
] } }
Shape { appearance Appearance { material Material { diffuseColor 0.72 0.65 0.37 specularColor 0.2 0.2 0.2 shininess 0.2 } } geometry IndexedFaceSet { solid FALSE creaseAngle 0.4
coord Coordinate { point [
0.87401575 5.87401575 -1.18110236,
1.12598425 5.87401575 -1.18110236,
1.12598425 6.12598425 -1.18110236,
0.87401575 6.12598425 -1.18110236,
0.87401575 5.87401575 2.36220472,
1.12598425 5.87401575 2.36220472,
1.12598425 6.12598425 2.36220472,
0.87401575 6.12598425 2.36220472
] }
coordIndex [
3 2 1 0 -1,
4 5 6 7 -1,
0 1 5 4 -1,
1 2 6 5 -1,
2 3 7 6 -1,
3 0 4 7 -1
] } }
Shape { appearance Appearance { material Material { diffuseColor 0.72 0.65 0.37 specularColor 0.2 0.2 0.2 shininess 0.2 } } geometry IndexedFaceSet { solid FALSE creaseAngle 0.4
coord Coordinate { point [
0.87401575 6.87401575 -1.18110236,
1.12598425 6.87401575 -1.18110236,
1.12598425 7.12598425 -1.18110236,
0.87401575 7.12598425 -1.18110236,
0.87401575 6.87401575 2.36220472,
1.12598425 6.87401575 2.36220472,
1.12598425 7.12598425 2.36220472,
0.87401575 7.12598425 2.36220472
] }
coordIndex [
3 2 1 0 -1,
4 5 6 7 -1,
0 1 5 4 -1,
1 2 6 5 -1,
2 3 7 6 -1,
3 0 4 7 -1
] } }
Shape { appearance Appearance { material Material { diffuseColor 0.72 0.65 0.37 specularColor 0.2 0.2 0.2 shininess 0.2 } } geometry IndexedFaceSet { solid FALSE creaseAngle 0.4
coord Coordinate { point [
0.87401575 7.87401575 -1.18110236,
1.12598425 7.87401575 -1.18110236,
1.12598425 8.12598425 -1.18110236,
0.87401575 8.12598425 -1.18110236,
0.87401575 7.87401575 2.36220472,
1.12598425 7.87401575 2.36220472,
1.12598425 8.12598425 2.36220472,
0.87401575 8.12598425 2.36220472
] }
coordIndex [
3 2 1 0 -1,
4 5 6 7 -1,
0 1 5 4 -1,
1 2 6 5 -1,
2 3 7 6 -1,
3 0 4 7 -1
] } }
Shape { appearance Appearance { material Material { diffuseColor 0.72 0.65 0.37 specularColor 0.2 0.2 0.2 shininess 0.2 } } geometry IndexedFaceSet { solid FALSE creaseAngle 0.4
coord Coordinate { point [
0.87401575 8.87401575 -1.18110236,
1.12598425 8.87401575 -1.18110236,
1.12598425 9.12598425 -1.18110236,
0.87401575 9.12598425 -1.18110236,
0.87401575 8.87401575 2.36220472,
1.12598425 8.87401575 2.36220472,
1.12598425 9.12598425 2.36220472,
0.87401575 9.12598425 2.36220472
] }
coordIndex [
3 2 1 0 -1,
4 5 6 7 -1,
0 1 5 4 -1,
1 2 6 5 -1,
2 3 7 6 -1,
3 0 4 7 -1
] } }
