#VRML V2.0 utf8
WorldInfo { title "Horizontal triangular-pin trimmer preview" info [
"Generic photo-based preview; not a manufacturer model or clearance reference.",
"Confirmed footprint pin centers in mm: (0,0), (5,2.5), (0,5).",
"Approximate body 7 x 7 mm, top 3.1 mm above PCB; lead width 0.45 mm.",
"KiCad VRML coordinates = mm / 2.54; Y inverted from footprint coordinates."
] }
Shape { appearance Appearance { material Material { diffuseColor 0.025 0.2 0.48 specularColor 0.2 0.2 0.2 shininess 0.2 } } geometry IndexedFaceSet { solid FALSE creaseAngle 0.4
coord Coordinate { point [
-0.39370079 -2.36220472 0.31496063,
2.04724409 -2.36220472 0.31496063,
2.36220472 -2.04724409 0.31496063,
2.36220472 0.07874016 0.31496063,
2.04724409 0.39370079 0.31496063,
-0.39370079 0.39370079 0.31496063,
-0.39370079 -2.36220472 0.74803150,
2.04724409 -2.36220472 0.74803150,
2.36220472 -2.04724409 0.74803150,
2.36220472 0.07874016 0.74803150,
2.04724409 0.39370079 0.74803150,
-0.39370079 0.39370079 0.74803150
] }
coordIndex [
5 4 3 2 1 0 -1,
6 7 8 9 10 11 -1,
0 1 7 6 -1,
1 2 8 7 -1,
2 3 9 8 -1,
3 4 10 9 -1,
4 5 11 10 -1,
5 0 6 11 -1
] } }
Shape { appearance Appearance { material Material { diffuseColor 0.65 0.67 0.69 specularColor 0.8 0.8 0.8 shininess 0.8 } } geometry IndexedFaceSet { solid FALSE creaseAngle 0.4
coord Coordinate { point [
1.69291339 -0.98425197 0.22047244,
1.68950099 -0.91479100 0.22047244,
1.67929666 -0.84599898 0.22047244,
1.66239866 -0.77853842 0.22047244,
1.63896975 -0.71305898 0.22047244,
1.60923554 -0.65019129 0.22047244,
1.57348240 -0.59054078 0.22047244,
1.53205465 -0.53468192 0.22047244,
1.48535126 -0.48315267 0.22047244,
1.43382201 -0.43644929 0.22047244,
1.37796316 -0.39502153 0.22047244,
1.31831265 -0.35926840 0.22047244,
1.25544495 -0.32953419 0.22047244,
1.18996552 -0.30610527 0.22047244,
1.12250495 -0.28920728 0.22047244,
1.05371293 -0.27900295 0.22047244,
0.98425197 -0.27559055 0.22047244,
0.91479100 -0.27900295 0.22047244,
0.84599898 -0.28920728 0.22047244,
0.77853842 -0.30610527 0.22047244,
0.71305898 -0.32953419 0.22047244,
0.65019129 -0.35926840 0.22047244,
0.59054078 -0.39502153 0.22047244,
0.53468192 -0.43644929 0.22047244,
0.48315267 -0.48315267 0.22047244,
0.43644929 -0.53468192 0.22047244,
0.39502153 -0.59054078 0.22047244,
0.35926840 -0.65019129 0.22047244,
0.32953419 -0.71305898 0.22047244,
0.30610527 -0.77853842 0.22047244,
0.28920728 -0.84599898 0.22047244,
0.27900295 -0.91479100 0.22047244,
0.27559055 -0.98425197 0.22047244,
0.27900295 -1.05371293 0.22047244,
0.28920728 -1.12250495 0.22047244,
0.30610527 -1.18996552 0.22047244,
0.32953419 -1.25544495 0.22047244,
0.35926840 -1.31831265 0.22047244,
0.39502153 -1.37796316 0.22047244,
0.43644929 -1.43382201 0.22047244,
0.48315267 -1.48535126 0.22047244,
0.53468192 -1.53205465 0.22047244,
0.59054078 -1.57348240 0.22047244,
0.65019129 -1.60923554 0.22047244,
0.71305898 -1.63896975 0.22047244,
0.77853842 -1.66239866 0.22047244,
0.84599898 -1.67929666 0.22047244,
0.91479100 -1.68950099 0.22047244,
0.98425197 -1.69291339 0.22047244,
1.05371293 -1.68950099 0.22047244,
1.12250495 -1.67929666 0.22047244,
1.18996552 -1.66239866 0.22047244,
1.25544495 -1.63896975 0.22047244,
1.31831265 -1.60923554 0.22047244,
1.37796316 -1.57348240 0.22047244,
1.43382201 -1.53205465 0.22047244,
1.48535126 -1.48535126 0.22047244,
1.53205465 -1.43382201 0.22047244,
1.57348240 -1.37796316 0.22047244,
1.60923554 -1.31831265 0.22047244,
1.63896975 -1.25544495 0.22047244,
1.66239866 -1.18996552 0.22047244,
1.67929666 -1.12250495 0.22047244,
1.68950099 -1.05371293 0.22047244,
1.69291339 -0.98425197 0.31496063,
1.68950099 -0.91479100 0.31496063,
1.67929666 -0.84599898 0.31496063,
1.66239866 -0.77853842 0.31496063,
1.63896975 -0.71305898 0.31496063,
1.60923554 -0.65019129 0.31496063,
1.57348240 -0.59054078 0.31496063,
1.53205465 -0.53468192 0.31496063,
1.48535126 -0.48315267 0.31496063,
1.43382201 -0.43644929 0.31496063,
1.37796316 -0.39502153 0.31496063,
1.31831265 -0.35926840 0.31496063,
1.25544495 -0.32953419 0.31496063,
1.18996552 -0.30610527 0.31496063,
1.12250495 -0.28920728 0.31496063,
1.05371293 -0.27900295 0.31496063,
0.98425197 -0.27559055 0.31496063,
0.91479100 -0.27900295 0.31496063,
0.84599898 -0.28920728 0.31496063,
0.77853842 -0.30610527 0.31496063,
0.71305898 -0.32953419 0.31496063,
0.65019129 -0.35926840 0.31496063,
0.59054078 -0.39502153 0.31496063,
0.53468192 -0.43644929 0.31496063,
0.48315267 -0.48315267 0.31496063,
0.43644929 -0.53468192 0.31496063,
0.39502153 -0.59054078 0.31496063,
0.35926840 -0.65019129 0.31496063,
0.32953419 -0.71305898 0.31496063,
0.30610527 -0.77853842 0.31496063,
0.28920728 -0.84599898 0.31496063,
0.27900295 -0.91479100 0.31496063,
0.27559055 -0.98425197 0.31496063,
0.27900295 -1.05371293 0.31496063,
0.28920728 -1.12250495 0.31496063,
0.30610527 -1.18996552 0.31496063,
0.32953419 -1.25544495 0.31496063,
0.35926840 -1.31831265 0.31496063,
0.39502153 -1.37796316 0.31496063,
0.43644929 -1.43382201 0.31496063,
0.48315267 -1.48535126 0.31496063,
0.53468192 -1.53205465 0.31496063,
0.59054078 -1.57348240 0.31496063,
0.65019129 -1.60923554 0.31496063,
0.71305898 -1.63896975 0.31496063,
0.77853842 -1.66239866 0.31496063,
0.84599898 -1.67929666 0.31496063,
0.91479100 -1.68950099 0.31496063,
0.98425197 -1.69291339 0.31496063,
1.05371293 -1.68950099 0.31496063,
1.12250495 -1.67929666 0.31496063,
1.18996552 -1.66239866 0.31496063,
1.25544495 -1.63896975 0.31496063,
1.31831265 -1.60923554 0.31496063,
1.37796316 -1.57348240 0.31496063,
1.43382201 -1.53205465 0.31496063,
1.48535126 -1.48535126 0.31496063,
1.53205465 -1.43382201 0.31496063,
1.57348240 -1.37796316 0.31496063,
1.60923554 -1.31831265 0.31496063,
1.63896975 -1.25544495 0.31496063,
1.66239866 -1.18996552 0.31496063,
1.67929666 -1.12250495 0.31496063,
1.68950099 -1.05371293 0.31496063
] }
coordIndex [
63 62 61 60 59 58 57 56 55 54 53 52 51 50 49 48 47 46 45 44 43 42 41 40 39 38 37 36 35 34 33 32 31 30 29 28 27 26 25 24 23 22 21 20 19 18 17 16 15 14 13 12 11 10 9 8 7 6 5 4 3 2 1 0 -1,
64 65 66 67 68 69 70 71 72 73 74 75 76 77 78 79 80 81 82 83 84 85 86 87 88 89 90 91 92 93 94 95 96 97 98 99 100 101 102 103 104 105 106 107 108 109 110 111 112 113 114 115 116 117 118 119 120 121 122 123 124 125 126 127 -1,
0 1 65 64 -1,
1 2 66 65 -1,
2 3 67 66 -1,
3 4 68 67 -1,
4 5 69 68 -1,
5 6 70 69 -1,
6 7 71 70 -1,
7 8 72 71 -1,
8 9 73 72 -1,
9 10 74 73 -1,
10 11 75 74 -1,
11 12 76 75 -1,
12 13 77 76 -1,
13 14 78 77 -1,
14 15 79 78 -1,
15 16 80 79 -1,
16 17 81 80 -1,
17 18 82 81 -1,
18 19 83 82 -1,
19 20 84 83 -1,
20 21 85 84 -1,
21 22 86 85 -1,
22 23 87 86 -1,
23 24 88 87 -1,
24 25 89 88 -1,
25 26 90 89 -1,
26 27 91 90 -1,
27 28 92 91 -1,
28 29 93 92 -1,
29 30 94 93 -1,
30 31 95 94 -1,
31 32 96 95 -1,
32 33 97 96 -1,
33 34 98 97 -1,
34 35 99 98 -1,
35 36 100 99 -1,
36 37 101 100 -1,
37 38 102 101 -1,
38 39 103 102 -1,
39 40 104 103 -1,
40 41 105 104 -1,
41 42 106 105 -1,
42 43 107 106 -1,
43 44 108 107 -1,
44 45 109 108 -1,
45 46 110 109 -1,
46 47 111 110 -1,
47 48 112 111 -1,
48 49 113 112 -1,
49 50 114 113 -1,
50 51 115 114 -1,
51 52 116 115 -1,
52 53 117 116 -1,
53 54 118 117 -1,
54 55 119 118 -1,
55 56 120 119 -1,
56 57 121 120 -1,
57 58 122 121 -1,
58 59 123 122 -1,
59 60 124 123 -1,
60 61 125 124 -1,
61 62 126 125 -1,
62 63 127 126 -1,
63 0 64 127 -1
] } }
Shape { appearance Appearance { material Material { diffuseColor 0.86 0.87 0.8 specularColor 0.2 0.2 0.2 shininess 0.2 } } geometry IndexedFaceSet { solid FALSE creaseAngle 0.4
coord Coordinate { point [
2.14566929 -0.98425197 0.74803150,
2.13988717 -0.86655422 0.74803150,
2.12259650 -0.74998997 0.74803150,
2.09396379 -0.63568179 0.74803150,
2.05426479 -0.52473052 0.74803150,
2.00388183 -0.41820471 0.74803150,
1.94330013 -0.31713023 0.74803150,
1.87310310 -0.22248051 0.74803150,
1.79396680 -0.13516705 0.74803150,
1.70665335 -0.05603075 0.74803150,
1.61200363 0.01416627 0.74803150,
1.51092915 0.07474797 0.74803150,
1.40440333 0.12513093 0.74803150,
1.29345207 0.16482993 0.74803150,
1.17914389 0.19346264 0.74803150,
1.06257964 0.21075331 0.74803150,
0.94488189 0.21653543 0.74803150,
0.82718414 0.21075331 0.74803150,
0.71061989 0.19346264 0.74803150,
0.59631171 0.16482993 0.74803150,
0.48536045 0.12513093 0.74803150,
0.37883463 0.07474797 0.74803150,
0.27776015 0.01416627 0.74803150,
0.18311043 -0.05603075 0.74803150,
0.09579698 -0.13516705 0.74803150,
0.01666068 -0.22248051 0.74803150,
-0.05353635 -0.31713023 0.74803150,
-0.11411805 -0.41820471 0.74803150,
-0.16450101 -0.52473052 0.74803150,
-0.20420001 -0.63568179 0.74803150,
-0.23283272 -0.74998997 0.74803150,
-0.25012339 -0.86655422 0.74803150,
-0.25590551 -0.98425197 0.74803150,
-0.25012339 -1.10194972 0.74803150,
-0.23283272 -1.21851397 0.74803150,
-0.20420001 -1.33282215 0.74803150,
-0.16450101 -1.44377341 0.74803150,
-0.11411805 -1.55029923 0.74803150,
-0.05353635 -1.65137371 0.74803150,
0.01666068 -1.74602343 0.74803150,
0.09579698 -1.83333688 0.74803150,
0.18311043 -1.91247318 0.74803150,
0.27776015 -1.98267020 0.74803150,
0.37883463 -2.04325191 0.74803150,
0.48536045 -2.09363487 0.74803150,
0.59631171 -2.13333387 0.74803150,
0.71061989 -2.16196658 0.74803150,
0.82718414 -2.17925725 0.74803150,
0.94488189 -2.18503937 0.74803150,
1.06257964 -2.17925725 0.74803150,
1.17914389 -2.16196658 0.74803150,
1.29345207 -2.13333387 0.74803150,
1.40440333 -2.09363487 0.74803150,
1.51092915 -2.04325191 0.74803150,
1.61200363 -1.98267020 0.74803150,
1.70665335 -1.91247318 0.74803150,
1.79396680 -1.83333688 0.74803150,
1.87310310 -1.74602343 0.74803150,
1.94330013 -1.65137371 0.74803150,
2.00388183 -1.55029923 0.74803150,
2.05426479 -1.44377341 0.74803150,
2.09396379 -1.33282215 0.74803150,
2.12259650 -1.21851397 0.74803150,
2.13988717 -1.10194972 0.74803150,
2.14566929 -0.98425197 1.18110236,
2.13988717 -0.86655422 1.18110236,
2.12259650 -0.74998997 1.18110236,
2.09396379 -0.63568179 1.18110236,
2.05426479 -0.52473052 1.18110236,
2.00388183 -0.41820471 1.18110236,
1.94330013 -0.31713023 1.18110236,
1.87310310 -0.22248051 1.18110236,
1.79396680 -0.13516705 1.18110236,
1.70665335 -0.05603075 1.18110236,
1.61200363 0.01416627 1.18110236,
1.51092915 0.07474797 1.18110236,
1.40440333 0.12513093 1.18110236,
1.29345207 0.16482993 1.18110236,
1.17914389 0.19346264 1.18110236,
1.06257964 0.21075331 1.18110236,
0.94488189 0.21653543 1.18110236,
0.82718414 0.21075331 1.18110236,
0.71061989 0.19346264 1.18110236,
0.59631171 0.16482993 1.18110236,
0.48536045 0.12513093 1.18110236,
0.37883463 0.07474797 1.18110236,
0.27776015 0.01416627 1.18110236,
0.18311043 -0.05603075 1.18110236,
0.09579698 -0.13516705 1.18110236,
0.01666068 -0.22248051 1.18110236,
-0.05353635 -0.31713023 1.18110236,
-0.11411805 -0.41820471 1.18110236,
-0.16450101 -0.52473052 1.18110236,
-0.20420001 -0.63568179 1.18110236,
-0.23283272 -0.74998997 1.18110236,
-0.25012339 -0.86655422 1.18110236,
-0.25590551 -0.98425197 1.18110236,
-0.25012339 -1.10194972 1.18110236,
-0.23283272 -1.21851397 1.18110236,
-0.20420001 -1.33282215 1.18110236,
-0.16450101 -1.44377341 1.18110236,
-0.11411805 -1.55029923 1.18110236,
-0.05353635 -1.65137371 1.18110236,
0.01666068 -1.74602343 1.18110236,
0.09579698 -1.83333688 1.18110236,
0.18311043 -1.91247318 1.18110236,
0.27776015 -1.98267020 1.18110236,
0.37883463 -2.04325191 1.18110236,
0.48536045 -2.09363487 1.18110236,
0.59631171 -2.13333387 1.18110236,
0.71061989 -2.16196658 1.18110236,
0.82718414 -2.17925725 1.18110236,
0.94488189 -2.18503937 1.18110236,
1.06257964 -2.17925725 1.18110236,
1.17914389 -2.16196658 1.18110236,
1.29345207 -2.13333387 1.18110236,
1.40440333 -2.09363487 1.18110236,
1.51092915 -2.04325191 1.18110236,
1.61200363 -1.98267020 1.18110236,
1.70665335 -1.91247318 1.18110236,
1.79396680 -1.83333688 1.18110236,
1.87310310 -1.74602343 1.18110236,
1.94330013 -1.65137371 1.18110236,
2.00388183 -1.55029923 1.18110236,
2.05426479 -1.44377341 1.18110236,
2.09396379 -1.33282215 1.18110236,
2.12259650 -1.21851397 1.18110236,
2.13988717 -1.10194972 1.18110236
] }
coordIndex [
63 62 61 60 59 58 57 56 55 54 53 52 51 50 49 48 47 46 45 44 43 42 41 40 39 38 37 36 35 34 33 32 31 30 29 28 27 26 25 24 23 22 21 20 19 18 17 16 15 14 13 12 11 10 9 8 7 6 5 4 3 2 1 0 -1,
64 65 66 67 68 69 70 71 72 73 74 75 76 77 78 79 80 81 82 83 84 85 86 87 88 89 90 91 92 93 94 95 96 97 98 99 100 101 102 103 104 105 106 107 108 109 110 111 112 113 114 115 116 117 118 119 120 121 122 123 124 125 126 127 -1,
0 1 65 64 -1,
1 2 66 65 -1,
2 3 67 66 -1,
3 4 68 67 -1,
4 5 69 68 -1,
5 6 70 69 -1,
6 7 71 70 -1,
7 8 72 71 -1,
8 9 73 72 -1,
9 10 74 73 -1,
10 11 75 74 -1,
11 12 76 75 -1,
12 13 77 76 -1,
13 14 78 77 -1,
14 15 79 78 -1,
15 16 80 79 -1,
16 17 81 80 -1,
17 18 82 81 -1,
18 19 83 82 -1,
19 20 84 83 -1,
20 21 85 84 -1,
21 22 86 85 -1,
22 23 87 86 -1,
23 24 88 87 -1,
24 25 89 88 -1,
25 26 90 89 -1,
26 27 91 90 -1,
27 28 92 91 -1,
28 29 93 92 -1,
29 30 94 93 -1,
30 31 95 94 -1,
31 32 96 95 -1,
32 33 97 96 -1,
33 34 98 97 -1,
34 35 99 98 -1,
35 36 100 99 -1,
36 37 101 100 -1,
37 38 102 101 -1,
38 39 103 102 -1,
39 40 104 103 -1,
40 41 105 104 -1,
41 42 106 105 -1,
42 43 107 106 -1,
43 44 108 107 -1,
44 45 109 108 -1,
45 46 110 109 -1,
46 47 111 110 -1,
47 48 112 111 -1,
48 49 113 112 -1,
49 50 114 113 -1,
50 51 115 114 -1,
51 52 116 115 -1,
52 53 117 116 -1,
53 54 118 117 -1,
54 55 119 118 -1,
55 56 120 119 -1,
56 57 121 120 -1,
57 58 122 121 -1,
58 59 123 122 -1,
59 60 124 123 -1,
60 61 125 124 -1,
61 62 126 125 -1,
62 63 127 126 -1,
63 0 64 127 -1
] } }
Shape { appearance Appearance { material Material { diffuseColor 0.16 0.17 0.15 specularColor 0.2 0.2 0.2 shininess 0.2 } } geometry IndexedFaceSet { solid FALSE creaseAngle 0.4
coord Coordinate { point [
0.84251969 -1.87007874 1.18110236,
1.04724409 -1.87007874 1.18110236,
1.04724409 -0.09842520 1.18110236,
0.84251969 -0.09842520 1.18110236,
0.84251969 -1.87007874 1.19055118,
1.04724409 -1.87007874 1.19055118,
1.04724409 -0.09842520 1.19055118,
0.84251969 -0.09842520 1.19055118
] }
coordIndex [
3 2 1 0 -1,
4 5 6 7 -1,
0 1 5 4 -1,
1 2 6 5 -1,
2 3 7 6 -1,
3 0 4 7 -1
] } }
Shape { appearance Appearance { material Material { diffuseColor 0.16 0.17 0.15 specularColor 0.2 0.2 0.2 shininess 0.2 } } geometry IndexedFaceSet { solid FALSE creaseAngle 0.4
coord Coordinate { point [
0.51181102 -1.07874016 1.18700787,
1.37795276 -1.07874016 1.18700787,
1.37795276 -0.88976378 1.18700787,
0.51181102 -0.88976378 1.18700787,
0.51181102 -1.07874016 1.19645669,
1.37795276 -1.07874016 1.19645669,
1.37795276 -0.88976378 1.19645669,
0.51181102 -0.88976378 1.19645669
] }
coordIndex [
3 2 1 0 -1,
4 5 6 7 -1,
0 1 5 4 -1,
1 2 6 5 -1,
2 3 7 6 -1,
3 0 4 7 -1
] } }
Shape { appearance Appearance { material Material { diffuseColor 0.65 0.67 0.69 specularColor 0.8 0.8 0.8 shininess 0.8 } } geometry IndexedFaceSet { solid FALSE creaseAngle 0.4
coord Coordinate { point [
0.89763780 -1.31889764 1.19488189,
0.99212598 -1.31889764 1.19488189,
0.99212598 -0.64960630 1.19488189,
0.89763780 -0.64960630 1.19488189,
0.89763780 -1.31889764 1.20118110,
0.99212598 -1.31889764 1.20118110,
0.99212598 -0.64960630 1.20118110,
0.89763780 -0.64960630 1.20118110
] }
coordIndex [
3 2 1 0 -1,
4 5 6 7 -1,
0 1 5 4 -1,
1 2 6 5 -1,
2 3 7 6 -1,
3 0 4 7 -1
] } }
Shape { appearance Appearance { material Material { diffuseColor 0.65 0.67 0.69 specularColor 0.8 0.8 0.8 shininess 0.8 } } geometry IndexedFaceSet { solid FALSE creaseAngle 0.4
coord Coordinate { point [
-0.08858268 -0.10826772 -1.02362205,
0.08858268 -0.10826772 -1.02362205,
0.08858268 0.10826772 -1.02362205,
-0.08858268 0.10826772 -1.02362205,
-0.08858268 -0.10826772 0.47244094,
0.08858268 -0.10826772 0.47244094,
0.08858268 0.10826772 0.47244094,
-0.08858268 0.10826772 0.47244094
] }
coordIndex [
3 2 1 0 -1,
4 5 6 7 -1,
0 1 5 4 -1,
1 2 6 5 -1,
2 3 7 6 -1,
3 0 4 7 -1
] } }
Shape { appearance Appearance { material Material { diffuseColor 0.65 0.67 0.69 specularColor 0.8 0.8 0.8 shininess 0.8 } } geometry IndexedFaceSet { solid FALSE creaseAngle 0.4
coord Coordinate { point [
1.87992126 -1.09251969 -1.02362205,
2.05708661 -1.09251969 -1.02362205,
2.05708661 -0.87598425 -1.02362205,
1.87992126 -0.87598425 -1.02362205,
1.87992126 -1.09251969 0.47244094,
2.05708661 -1.09251969 0.47244094,
2.05708661 -0.87598425 0.47244094,
1.87992126 -0.87598425 0.47244094
] }
coordIndex [
3 2 1 0 -1,
4 5 6 7 -1,
0 1 5 4 -1,
1 2 6 5 -1,
2 3 7 6 -1,
3 0 4 7 -1
] } }
Shape { appearance Appearance { material Material { diffuseColor 0.65 0.67 0.69 specularColor 0.8 0.8 0.8 shininess 0.8 } } geometry IndexedFaceSet { solid FALSE creaseAngle 0.4
coord Coordinate { point [
-0.08858268 -2.07677165 -1.02362205,
0.08858268 -2.07677165 -1.02362205,
0.08858268 -1.86023622 -1.02362205,
-0.08858268 -1.86023622 -1.02362205,
-0.08858268 -2.07677165 0.47244094,
0.08858268 -2.07677165 0.47244094,
0.08858268 -1.86023622 0.47244094,
-0.08858268 -1.86023622 0.47244094
] }
coordIndex [
3 2 1 0 -1,
4 5 6 7 -1,
0 1 5 4 -1,
1 2 6 5 -1,
2 3 7 6 -1,
3 0 4 7 -1
] } }
Shape { appearance Appearance { material Material { diffuseColor 0.65 0.67 0.69 specularColor 0.8 0.8 0.8 shininess 0.8 } } geometry IndexedFaceSet { solid FALSE creaseAngle 0.4
coord Coordinate { point [
-0.40354331 -0.12795276 0.70866142,
0.00984252 -0.12795276 0.70866142,
0.00984252 0.12795276 0.70866142,
-0.40354331 0.12795276 0.70866142,
-0.40354331 -0.12795276 0.81889764,
0.00984252 -0.12795276 0.81889764,
0.00984252 0.12795276 0.81889764,
-0.40354331 0.12795276 0.81889764
] }
coordIndex [
3 2 1 0 -1,
4 5 6 7 -1,
0 1 5 4 -1,
1 2 6 5 -1,
2 3 7 6 -1,
3 0 4 7 -1
] } }
Shape { appearance Appearance { material Material { diffuseColor 0.65 0.67 0.69 specularColor 0.8 0.8 0.8 shininess 0.8 } } geometry IndexedFaceSet { solid FALSE creaseAngle 0.4
coord Coordinate { point [
-0.40354331 -2.09645669 0.70866142,
0.00984252 -2.09645669 0.70866142,
0.00984252 -1.84055118 0.70866142,
-0.40354331 -1.84055118 0.70866142,
-0.40354331 -2.09645669 0.81889764,
0.00984252 -2.09645669 0.81889764,
0.00984252 -1.84055118 0.81889764,
-0.40354331 -1.84055118 0.81889764
] }
coordIndex [
3 2 1 0 -1,
4 5 6 7 -1,
0 1 5 4 -1,
1 2 6 5 -1,
2 3 7 6 -1,
3 0 4 7 -1
] } }
Shape { appearance Appearance { material Material { diffuseColor 0.65 0.67 0.69 specularColor 0.8 0.8 0.8 shininess 0.8 } } geometry IndexedFaceSet { solid FALSE creaseAngle 0.4
coord Coordinate { point [
1.89960630 -1.11220472 0.70866142,
2.31299213 -1.11220472 0.70866142,
2.31299213 -0.85629921 0.70866142,
1.89960630 -0.85629921 0.70866142,
1.89960630 -1.11220472 0.81889764,
2.31299213 -1.11220472 0.81889764,
2.31299213 -0.85629921 0.81889764,
1.89960630 -0.85629921 0.81889764
] }
coordIndex [
3 2 1 0 -1,
4 5 6 7 -1,
0 1 5 4 -1,
1 2 6 5 -1,
2 3 7 6 -1,
3 0 4 7 -1
] } }
Shape { appearance Appearance { material Material { diffuseColor 0.65 0.67 0.69 specularColor 0.8 0.8 0.8 shininess 0.8 } } geometry IndexedFaceSet { solid FALSE creaseAngle 0.4
coord Coordinate { point [
-0.33858268 -0.12795276 0.13779528,
-0.25196850 -0.12795276 0.13779528,
-0.25196850 0.12795276 0.13779528,
-0.33858268 0.12795276 0.13779528,
-0.33858268 -0.12795276 0.72834646,
-0.25196850 -0.12795276 0.72834646,
-0.25196850 0.12795276 0.72834646,
-0.33858268 0.12795276 0.72834646
] }
coordIndex [
3 2 1 0 -1,
4 5 6 7 -1,
0 1 5 4 -1,
1 2 6 5 -1,
2 3 7 6 -1,
3 0 4 7 -1
] } }
Shape { appearance Appearance { material Material { diffuseColor 0.65 0.67 0.69 specularColor 0.8 0.8 0.8 shininess 0.8 } } geometry IndexedFaceSet { solid FALSE creaseAngle 0.4
coord Coordinate { point [
-0.33858268 -2.09645669 0.13779528,
-0.25196850 -2.09645669 0.13779528,
-0.25196850 -1.84055118 0.13779528,
-0.33858268 -1.84055118 0.13779528,
-0.33858268 -2.09645669 0.72834646,
-0.25196850 -2.09645669 0.72834646,
-0.25196850 -1.84055118 0.72834646,
-0.33858268 -1.84055118 0.72834646
] }
coordIndex [
3 2 1 0 -1,
4 5 6 7 -1,
0 1 5 4 -1,
1 2 6 5 -1,
2 3 7 6 -1,
3 0 4 7 -1
] } }
Shape { appearance Appearance { material Material { diffuseColor 0.65 0.67 0.69 specularColor 0.8 0.8 0.8 shininess 0.8 } } geometry IndexedFaceSet { solid FALSE creaseAngle 0.4
coord Coordinate { point [
2.22047244 -1.11220472 0.13779528,
2.30708661 -1.11220472 0.13779528,
2.30708661 -0.85629921 0.13779528,
2.22047244 -0.85629921 0.13779528,
2.22047244 -1.11220472 0.72834646,
2.30708661 -1.11220472 0.72834646,
2.30708661 -0.85629921 0.72834646,
2.22047244 -0.85629921 0.72834646
] }
coordIndex [
3 2 1 0 -1,
4 5 6 7 -1,
0 1 5 4 -1,
1 2 6 5 -1,
2 3 7 6 -1,
3 0 4 7 -1
] } }
